<svg width="60" height="60" viewBox="0 0 60 60" fill="none" xmlns="http://www.w3.org/2000/svg">
<path d="M22.8829 13.521C26.0495 7.84033 27.6328 5 30 5C32.3673 5 33.9505 7.8403 37.117 13.5209L37.9363 14.9906C38.8363 16.6048 39.286 17.412 39.9878 17.9445C40.6893 18.4771 41.5628 18.6747 43.3103 19.0701L44.9013 19.4301C51.0503 20.8214 54.125 21.5171 54.8565 23.8693C55.588 26.2215 53.492 28.6728 49.2998 33.5748L48.2153 34.843C47.024 36.236 46.4283 36.9325 46.1603 37.7942C45.8925 38.656 45.9825 39.5853 46.1625 41.444L46.3265 43.136C46.9603 49.6765 47.2773 52.9468 45.3623 54.4005C43.447 55.8543 40.5683 54.5287 34.8108 51.878L33.3213 51.192C31.6853 50.4388 30.8673 50.062 30 50.062C29.1328 50.062 28.3148 50.4388 26.6788 51.192L25.1893 51.878C19.4317 54.5287 16.553 55.8543 14.6379 54.4005C12.7228 52.9468 13.0397 49.6765 13.6735 43.136L13.8375 41.444C14.0176 39.5853 14.1076 38.656 13.8397 37.7942C13.5717 36.9325 12.9761 36.236 11.7848 34.843L10.7003 33.5748C6.50813 28.6728 4.41205 26.2215 5.14355 23.8693C5.87505 21.5171 8.94965 20.8214 15.0989 19.4301L16.6897 19.0701C18.4371 18.6747 19.3108 18.4771 20.0124 17.9445C20.7139 17.412 21.1638 16.6049 22.0637 14.9906L22.8829 13.521Z" stroke="#FFCC5D" stroke-width="3.75"/>
</svg>
