<svg width="214" height="214" viewBox="0 0 214 214" fill="none" xmlns="http://www.w3.org/2000/svg">
<path d="M115.964 79.6828C115.964 71.8571 112.407 64.0313 106.715 58.3399L62.6065 17.7882C60.4722 15.6539 56.915 15.6539 54.7808 17.7882C52.6465 19.9225 52.6465 23.4797 54.7808 25.614L88.2181 64.0313C89.6409 65.4542 89.6409 68.2999 88.2181 70.4342C86.7952 71.8571 83.9495 71.8571 81.8152 70.4342L43.3978 36.2855C41.2635 34.1512 37.7064 34.1512 35.5721 36.2855C33.4378 38.4198 33.4378 41.9769 35.5721 44.1112L69.7208 83.24C71.1437 84.6629 71.1437 87.5086 69.7208 89.6429C68.298 91.0658 65.4522 91.0658 63.3179 89.6429L24.9006 55.4941C22.7663 53.3598 19.2091 53.3598 17.0748 55.4941C14.9405 57.6284 14.9405 61.1856 17.0748 63.3199L56.915 107.429C62.6065 113.832 71.1437 117.389 79.6809 116.677L91.0638 115.966C95.3324 115.966 99.601 117.389 102.447 120.946L165.053 191.378C172.167 199.915 184.973 199.915 192.799 192.089C200.624 184.263 199.913 171.458 192.087 164.343L120.944 101.026C118.098 98.1801 115.964 94.6229 115.964 90.3543V79.6828Z" fill="#F9E5D5"/>
</svg>
