<svg width="190" height="190" viewBox="0 0 190 190" fill="none" xmlns="http://www.w3.org/2000/svg">
<path d="M168.461 147.535C141.579 127.674 137.343 126.878 124.459 113.994C114.62 104.156 107.905 97.4432 93.5421 83.0715C84.2232 73.7586 92.2477 50.3886 68.0227 26.1517C50.807 8.94184 22.5801 -0.534407 11.0198 11.014C-0.543503 22.5773 8.94462 50.8161 26.1545 68.0289C50.3884 92.2509 73.7584 84.2234 83.0773 93.5453C97.446 107.908 104.158 114.623 113.994 124.465C126.878 137.349 127.674 141.589 147.532 168.465C157.346 181.771 166.751 190.232 178.493 178.49C190.225 166.758 181.764 157.353 168.461 147.535ZM75.2309 72.4107C71.6654 75.9822 66.669 77.6179 61.0076 77.5704C60.4673 77.4368 59.9418 77.3211 59.3926 77.1875C67.5656 61.8212 62.3999 38.1336 46.3954 17.5067C53.3049 20.7064 59.6015 25.09 65.0006 30.4593C74.836 40.2948 79.3366 49.6404 80.3935 58.0984C81.0971 63.7717 78.8141 68.8275 75.2309 72.4107Z" fill="#F9E5D5"/>
</svg>
