<svg width="60" height="60" viewBox="0 0 60 60" fill="none" xmlns="http://www.w3.org/2000/svg">
<path opacity="0.5" d="M30 30C34.1421 30 37.5 26.6421 37.5 22.5C37.5 18.3579 34.1421 15 30 15C25.8579 15 22.5 18.3579 22.5 22.5C22.5 26.6421 25.8579 30 30 30Z" stroke="#F9E5D5" stroke-width="3.75"/>
<path d="M30 55C43.8071 55 55 43.8071 55 30C55 16.1929 43.8071 5 30 5C16.1929 5 5 16.1929 5 30C5 43.8071 16.1929 55 30 55Z" stroke="#F9E5D5" stroke-width="3.75"/>
<path opacity="0.5" d="M44.923 50C44.5253 42.7713 42.312 37.5 30 37.5C17.6883 37.5 15.475 42.7713 15.0771 50" stroke="#F9E5D5" stroke-width="3.75" stroke-linecap="round"/>
</svg>
