<svg width="60" height="60" viewBox="0 0 60 60" fill="none" xmlns="http://www.w3.org/2000/svg">
<path d="M37.5 12.5V22.5M37.5 22.5H47.5M37.5 22.5L52.5 7.5M46.25 52.5C24.849 52.5 7.5 35.151 7.5 13.75C7.5 12.7844 7.53532 11.8271 7.60472 10.8793C7.68437 9.79155 7.7242 9.24767 8.00925 8.75257C8.24535 8.34252 8.66375 7.95365 9.08995 7.74813C9.60452 7.5 10.2047 7.5 11.405 7.5H18.4483C19.4577 7.5 19.9624 7.5 20.3951 7.66613C20.7772 7.81288 21.1175 8.05123 21.3861 8.36025C21.69 8.71007 21.8625 9.1844 22.2075 10.133L25.1227 18.1501C25.524 19.2538 25.7248 19.8057 25.6908 20.3292C25.6608 20.7909 25.503 21.2352 25.2355 21.6126C24.9322 22.0407 24.4286 22.3428 23.4216 22.947L20 25C23.0048 31.6223 28.3753 36.9998 35 40L37.053 36.5785C37.6573 35.5713 37.9593 35.0677 38.3873 34.7645C38.7648 34.497 39.209 34.3392 39.6708 34.3092C40.1943 34.2752 40.7462 34.476 41.85 34.8773L49.867 37.7925C50.8155 38.1375 51.29 38.31 51.6397 38.614C51.9487 38.8825 52.1873 39.2228 52.3338 39.605C52.5 40.0375 52.5 40.5423 52.5 41.5518V48.595C52.5 49.7952 52.5 50.3955 52.2517 50.91C52.0462 51.3363 51.6575 51.7548 51.2475 51.9908C50.7523 52.2758 50.2085 52.3155 49.1208 52.3952C48.1728 52.4647 47.2155 52.5 46.25 52.5Z" stroke="#73A55F" stroke-width="3" stroke-linecap="round" stroke-linejoin="round"/>
</svg>
